<?xml version="1.0" standalone="no"?>
<!DOCTYPE svg PUBLIC "-//W3C//DTD SVG 20010904//EN"
 "http://www.w3.org/TR/2001/REC-SVG-20010904/DTD/svg10.dtd">
<svg version="1.0" xmlns="http://www.w3.org/2000/svg"
 width="758.000000pt" height="692.000000pt" viewBox="0 0 758.000000 692.000000"
 preserveAspectRatio="xMidYMid meet">
 <defs>
    <linearGradient id="grad1" x1="0%" y1="0%" x2="100%" y2="0%">
      <stop offset="0%" style="stop-color:#89f7fe;stop-opacity:1" />
      <stop offset="100%" style="stop-color:#66a6ff;stop-opacity:1" />
    </linearGradient>
  </defs>

<g transform="translate(0.000000,692.000000) scale(0.100000,-0.100000)"
fill="url(#grad1)" stroke="none">
<path d="M4230 5945 c-369 -63 -617 -268 -824 -682 -104 -209 -208 -479 -255
-664 -64 -249 -65 -272 -51 -983 13 -625 9 -1252 -9 -1651 -17 -358 17 -520
174 -830 45 -88 128 -234 184 -325 57 -90 128 -209 158 -263 31 -54 59 -100
63 -102 12 -7 252 367 362 564 218 387 289 690 244 1036 -16 117 -17 249 -14
1325 l3 1195 30 55 c23 42 41 60 79 79 l49 25 791 2 c968 2 924 -4 1007 125
48 74 225 361 286 464 180 304 361 620 358 623 -3 3 -336 -1 -742 -8 -736 -13
-1143 -7 -1423 20 -132 13 -380 10 -470 -5z"/>
<path d="M561 5853 c52 -54 144 -150 204 -213 312 -327 731 -745 773 -772 43
-26 173 -56 342 -78 229 -30 396 -40 780 -47 289 -5 347 -4 356 8 7 8 46 93
89 189 212 482 411 754 690 941 49 34 92 63 94 65 2 2 -767 4 -1710 4 l-1714
0 96 -97z"/>
<path d="M4360 3580 c0 -346 3 -630 8 -630 4 0 25 5 47 11 22 5 155 10 295 10
224 0 263 2 321 20 86 25 153 63 183 102 32 42 137 218 314 522 249 429 322
558 322 567 0 6 -287 9 -707 7 -508 -1 -716 2 -736 10 -16 6 -33 11 -38 11 -5
0 -9 -246 -9 -630z"/>
</g>
</svg>
